<?xml version="1.0" standalone="no"?>
 <!DOCTYPE svg PUBLIC "-//W3C//DTD SVG 1.1//EN" 
 "http://www.w3.org/Graphics/SVG/1.1/DTD/svg11.dtd"> 
<svg
  xmlns:svg="http://www.w3.org/2000/svg"
  xmlns="http://www.w3.org/2000/svg"
  xmlns:xlink="http://www.w3.org/1999/xlink"
  xmlns:inkscape="http://www.inkscape.org/namespaces/inkscape"
  version="1.1"
  width="9.017000mm" height="3.048000mm" viewBox="0.000000 0.000000 9.017000 3.048000">
<title>SVG Image created as TSLP-6-4_BGS12P2L6_0.7x1.1mm.svg date 2026-09-08T14:32:26 </title>
  <desc>Image generated by PCBNEW </desc>
<g style="fill:#000000; fill-opacity:1.000000;stroke:#000000; stroke-opacity:1.000000;
stroke-linecap:round; stroke-linejoin:round;"
 transform="translate(0 0) scale(1 1)">
<path style="fill:#C83434; fill-opacity:1.000000; stroke:none;fill-rule:evenodd;"
d="M 4.585473,2.057900
4.585473,1.807900
4.835473,1.807900
4.835473,2.057900
Z" /> 
<path style="fill:#C83434; fill-opacity:1.000000; stroke:none;fill-rule:evenodd;"
d="M 4.585473,1.657900
4.585473,1.407900
4.835473,1.407900
4.835473,1.657900
Z" /> 
<path style="fill:#C83434; fill-opacity:1.000000; stroke:none;fill-rule:evenodd;"
d="M 4.585473,1.257900
4.585473,1.007900
4.835473,1.007900
4.835473,1.257900
Z" /> 
<path style="fill:#C83434; fill-opacity:1.000000; stroke:none;fill-rule:evenodd;"
d="M 4.185473,1.257900
4.185473,1.007900
4.435473,1.007900
4.435473,1.257900
Z" /> 
<path style="fill:#C83434; fill-opacity:1.000000; stroke:none;fill-rule:evenodd;"
d="M 4.185473,1.657900
4.185473,1.407900
4.435473,1.407900
4.435473,1.657900
Z" /> 
<path style="fill:#C83434; fill-opacity:1.000000; stroke:none;fill-rule:evenodd;"
d="M 4.185473,2.057900
4.185473,1.807900
4.435473,1.807900
4.435473,2.057900
Z" /> 
</g>
<g style="fill:none; 
stroke:#F2EDA1; stroke-width:0.080000; stroke-opacity:1; 
stroke-linecap:round; stroke-linejoin:round;">
<text x="4.510473" y="0.682900"
textLength="2.282856" font-size="0.666666" lengthAdjust="spacingAndGlyphs"
text-anchor="middle" opacity="0" stroke-opacity="0">REF**</text>
<g class="stroked-text"><desc>REF**</desc>
<path d="M3.843807 0.660050
L3.677141 0.421955
" />
<path d="M3.558093 0.660050
L3.558093 0.160050
" />
<path d="M3.558093 0.160050
L3.748569 0.160050
" />
<path d="M3.748569 0.160050
L3.796188 0.183860
" />
<path d="M3.796188 0.183860
L3.819998 0.207669
" />
<path d="M3.819998 0.207669
L3.843807 0.255288
" />
<path d="M3.843807 0.255288
L3.843807 0.326717
" />
<path d="M3.843807 0.326717
L3.819998 0.374336
" />
<path d="M3.819998 0.374336
L3.796188 0.398145
" />
<path d="M3.796188 0.398145
L3.748569 0.421955
" />
<path d="M3.748569 0.421955
L3.558093 0.421955
" />
<path d="M4.058093 0.398145
L4.224760 0.398145
" />
<path d="M4.296188 0.660050
L4.058093 0.660050
" />
<path d="M4.058093 0.660050
L4.058093 0.160050
" />
<path d="M4.058093 0.160050
L4.296188 0.160050
" />
<path d="M4.677140 0.398145
L4.510473 0.398145
" />
<path d="M4.510473 0.660050
L4.510473 0.160050
" />
<path d="M4.510473 0.160050
L4.748568 0.160050
" />
<path d="M5.010473 0.160050
L5.010473 0.279098
" />
<path d="M4.891425 0.231479
L5.010473 0.279098
" />
<path d="M5.010473 0.279098
L5.129520 0.231479
" />
<path d="M4.939044 0.374336
L5.010473 0.279098
" />
<path d="M5.010473 0.279098
L5.081901 0.374336
" />
<path d="M5.391425 0.160050
L5.391425 0.279098
" />
<path d="M5.272377 0.231479
L5.391425 0.279098
" />
<path d="M5.391425 0.279098
L5.510472 0.231479
" />
<path d="M5.319996 0.374336
L5.391425 0.279098
" />
<path d="M5.391425 0.279098
L5.462853 0.374336
" />
</g></g>
<g style="fill:none; 
stroke:#F2EDA1; stroke-width:0.100000; stroke-opacity:1; 
stroke-linecap:round; stroke-linejoin:round;">
<path d="M4.210473 0.852900
L4.810473 0.852900
" />
<path d="M4.210473 2.212900
L4.990473 2.212900
" />
</g>
<g style="fill:none; 
stroke:#AFAFAF; stroke-width:0.080000; stroke-opacity:1; 
stroke-linecap:round; stroke-linejoin:round;">
<text x="4.510473" y="2.882900"
textLength="9.020946" font-size="0.666666" lengthAdjust="spacingAndGlyphs"
text-anchor="middle" opacity="0" stroke-opacity="0">BGS12P2L6E6327XTSA1</text>
<g class="stroked-text"><desc>BGS12P2L6E6327XTSA1</desc>
<path d="M0.355715 2.598144
L0.427143 2.621954
" />
<path d="M0.427143 2.621954
L0.450953 2.645763
" />
<path d="M0.450953 2.645763
L0.474762 2.693382
" />
<path d="M0.474762 2.693382
L0.474762 2.764811
" />
<path d="M0.474762 2.764811
L0.450953 2.812430
" />
<path d="M0.450953 2.812430
L0.427143 2.836240
" />
<path d="M0.427143 2.836240
L0.379524 2.860049
" />
<path d="M0.379524 2.860049
L0.189048 2.860049
" />
<path d="M0.189048 2.860049
L0.189048 2.360049
" />
<path d="M0.189048 2.360049
L0.355715 2.360049
" />
<path d="M0.355715 2.360049
L0.403334 2.383859
" />
<path d="M0.403334 2.383859
L0.427143 2.407668
" />
<path d="M0.427143 2.407668
L0.450953 2.455287
" />
<path d="M0.450953 2.455287
L0.450953 2.502906
" />
<path d="M0.450953 2.502906
L0.427143 2.550525
" />
<path d="M0.427143 2.550525
L0.403334 2.574335
" />
<path d="M0.403334 2.574335
L0.355715 2.598144
" />
<path d="M0.355715 2.598144
L0.189048 2.598144
" />
<path d="M0.950953 2.383859
L0.903334 2.360049
" />
<path d="M0.903334 2.360049
L0.831905 2.360049
" />
<path d="M0.831905 2.360049
L0.760477 2.383859
" />
<path d="M0.760477 2.383859
L0.712858 2.431478
" />
<path d="M0.712858 2.431478
L0.689048 2.479097
" />
<path d="M0.689048 2.479097
L0.665239 2.574335
" />
<path d="M0.665239 2.574335
L0.665239 2.645763
" />
<path d="M0.665239 2.645763
L0.689048 2.741001
" />
<path d="M0.689048 2.741001
L0.712858 2.788620
" />
<path d="M0.712858 2.788620
L0.760477 2.836240
" />
<path d="M0.760477 2.836240
L0.831905 2.860049
" />
<path d="M0.831905 2.860049
L0.879524 2.860049
" />
<path d="M0.879524 2.860049
L0.950953 2.836240
" />
<path d="M0.950953 2.836240
L0.974762 2.812430
" />
<path d="M0.974762 2.812430
L0.974762 2.645763
" />
<path d="M0.974762 2.645763
L0.879524 2.645763
" />
<path d="M1.165239 2.836240
L1.236667 2.860049
" />
<path d="M1.236667 2.860049
L1.355715 2.860049
" />
<path d="M1.355715 2.860049
L1.403334 2.836240
" />
<path d="M1.403334 2.836240
L1.427143 2.812430
" />
<path d="M1.427143 2.812430
L1.450953 2.764811
" />
<path d="M1.450953 2.764811
L1.450953 2.717192
" />
<path d="M1.450953 2.717192
L1.427143 2.669573
" />
<path d="M1.427143 2.669573
L1.403334 2.645763
" />
<path d="M1.403334 2.645763
L1.355715 2.621954
" />
<path d="M1.355715 2.621954
L1.260477 2.598144
" />
<path d="M1.260477 2.598144
L1.212858 2.574335
" />
<path d="M1.212858 2.574335
L1.189048 2.550525
" />
<path d="M1.189048 2.550525
L1.165239 2.502906
" />
<path d="M1.165239 2.502906
L1.165239 2.455287
" />
<path d="M1.165239 2.455287
L1.189048 2.407668
" />
<path d="M1.189048 2.407668
L1.212858 2.383859
" />
<path d="M1.212858 2.383859
L1.260477 2.360049
" />
<path d="M1.260477 2.360049
L1.379524 2.360049
" />
<path d="M1.379524 2.360049
L1.450953 2.383859
" />
<path d="M1.927143 2.860049
L1.641429 2.860049
" />
<path d="M1.784286 2.860049
L1.784286 2.360049
" />
<path d="M1.784286 2.360049
L1.736667 2.431478
" />
<path d="M1.736667 2.431478
L1.689048 2.479097
" />
<path d="M1.689048 2.479097
L1.641429 2.502906
" />
<path d="M2.117619 2.407668
L2.141428 2.383859
" />
<path d="M2.141428 2.383859
L2.189047 2.360049
" />
<path d="M2.189047 2.360049
L2.308095 2.360049
" />
<path d="M2.308095 2.360049
L2.355714 2.383859
" />
<path d="M2.355714 2.383859
L2.379523 2.407668
" />
<path d="M2.379523 2.407668
L2.403333 2.455287
" />
<path d="M2.403333 2.455287
L2.403333 2.502906
" />
<path d="M2.403333 2.502906
L2.379523 2.574335
" />
<path d="M2.379523 2.574335
L2.093809 2.860049
" />
<path d="M2.093809 2.860049
L2.403333 2.860049
" />
<path d="M2.617618 2.860049
L2.617618 2.360049
" />
<path d="M2.617618 2.360049
L2.808094 2.360049
" />
<path d="M2.808094 2.360049
L2.855713 2.383859
" />
<path d="M2.855713 2.383859
L2.879523 2.407668
" />
<path d="M2.879523 2.407668
L2.903332 2.455287
" />
<path d="M2.903332 2.455287
L2.903332 2.526716
" />
<path d="M2.903332 2.526716
L2.879523 2.574335
" />
<path d="M2.879523 2.574335
L2.855713 2.598144
" />
<path d="M2.855713 2.598144
L2.808094 2.621954
" />
<path d="M2.808094 2.621954
L2.617618 2.621954
" />
<path d="M3.093809 2.407668
L3.117618 2.383859
" />
<path d="M3.117618 2.383859
L3.165237 2.360049
" />
<path d="M3.165237 2.360049
L3.284285 2.360049
" />
<path d="M3.284285 2.360049
L3.331904 2.383859
" />
<path d="M3.331904 2.383859
L3.355713 2.407668
" />
<path d="M3.355713 2.407668
L3.379523 2.455287
" />
<path d="M3.379523 2.455287
L3.379523 2.502906
" />
<path d="M3.379523 2.502906
L3.355713 2.574335
" />
<path d="M3.355713 2.574335
L3.069999 2.860049
" />
<path d="M3.069999 2.860049
L3.379523 2.860049
" />
<path d="M3.831903 2.860049
L3.593808 2.860049
" />
<path d="M3.593808 2.860049
L3.593808 2.360049
" />
<path d="M4.212856 2.360049
L4.117618 2.360049
" />
<path d="M4.117618 2.360049
L4.069999 2.383859
" />
<path d="M4.069999 2.383859
L4.046189 2.407668
" />
<path d="M4.046189 2.407668
L3.998570 2.479097
" />
<path d="M3.998570 2.479097
L3.974761 2.574335
" />
<path d="M3.974761 2.574335
L3.974761 2.764811
" />
<path d="M3.974761 2.764811
L3.998570 2.812430
" />
<path d="M3.998570 2.812430
L4.022380 2.836240
" />
<path d="M4.022380 2.836240
L4.069999 2.860049
" />
<path d="M4.069999 2.860049
L4.165237 2.860049
" />
<path d="M4.165237 2.860049
L4.212856 2.836240
" />
<path d="M4.212856 2.836240
L4.236665 2.812430
" />
<path d="M4.236665 2.812430
L4.260475 2.764811
" />
<path d="M4.260475 2.764811
L4.260475 2.645763
" />
<path d="M4.260475 2.645763
L4.236665 2.598144
" />
<path d="M4.236665 2.598144
L4.212856 2.574335
" />
<path d="M4.212856 2.574335
L4.165237 2.550525
" />
<path d="M4.165237 2.550525
L4.069999 2.550525
" />
<path d="M4.069999 2.550525
L4.022380 2.574335
" />
<path d="M4.022380 2.574335
L3.998570 2.598144
" />
<path d="M3.998570 2.598144
L3.974761 2.645763
" />
<path d="M4.474760 2.598144
L4.641426 2.598144
" />
<path d="M4.712854 2.860049
L4.474760 2.860049
" />
<path d="M4.474760 2.860049
L4.474760 2.360049
" />
<path d="M4.474760 2.360049
L4.712854 2.360049
" />
<path d="M5.141426 2.360049
L5.046188 2.360049
" />
<path d="M5.046188 2.360049
L4.998569 2.383859
" />
<path d="M4.998569 2.383859
L4.974759 2.407668
" />
<path d="M4.974759 2.407668
L4.927140 2.479097
" />
<path d="M4.927140 2.479097
L4.903331 2.574335
" />
<path d="M4.903331 2.574335
L4.903331 2.764811
" />
<path d="M4.903331 2.764811
L4.927140 2.812430
" />
<path d="M4.927140 2.812430
L4.950950 2.836240
" />
<path d="M4.950950 2.836240
L4.998569 2.860049
" />
<path d="M4.998569 2.860049
L5.093807 2.860049
" />
<path d="M5.093807 2.860049
L5.141426 2.836240
" />
<path d="M5.141426 2.836240
L5.165235 2.812430
" />
<path d="M5.165235 2.812430
L5.189045 2.764811
" />
<path d="M5.189045 2.764811
L5.189045 2.645763
" />
<path d="M5.189045 2.645763
L5.165235 2.598144
" />
<path d="M5.165235 2.598144
L5.141426 2.574335
" />
<path d="M5.141426 2.574335
L5.093807 2.550525
" />
<path d="M5.093807 2.550525
L4.998569 2.550525
" />
<path d="M4.998569 2.550525
L4.950950 2.574335
" />
<path d="M4.950950 2.574335
L4.927140 2.598144
" />
<path d="M4.927140 2.598144
L4.903331 2.645763
" />
<path d="M5.355711 2.360049
L5.665235 2.360049
" />
<path d="M5.665235 2.360049
L5.498568 2.550525
" />
<path d="M5.498568 2.550525
L5.569997 2.550525
" />
<path d="M5.569997 2.550525
L5.617616 2.574335
" />
<path d="M5.617616 2.574335
L5.641425 2.598144
" />
<path d="M5.641425 2.598144
L5.665235 2.645763
" />
<path d="M5.665235 2.645763
L5.665235 2.764811
" />
<path d="M5.665235 2.764811
L5.641425 2.812430
" />
<path d="M5.641425 2.812430
L5.617616 2.836240
" />
<path d="M5.617616 2.836240
L5.569997 2.860049
" />
<path d="M5.569997 2.860049
L5.427140 2.860049
" />
<path d="M5.427140 2.860049
L5.379521 2.836240
" />
<path d="M5.379521 2.836240
L5.355711 2.812430
" />
<path d="M5.855711 2.407668
L5.879520 2.383859
" />
<path d="M5.879520 2.383859
L5.927139 2.360049
" />
<path d="M5.927139 2.360049
L6.046187 2.360049
" />
<path d="M6.046187 2.360049
L6.093806 2.383859
" />
<path d="M6.093806 2.383859
L6.117615 2.407668
" />
<path d="M6.117615 2.407668
L6.141425 2.455287
" />
<path d="M6.141425 2.455287
L6.141425 2.502906
" />
<path d="M6.141425 2.502906
L6.117615 2.574335
" />
<path d="M6.117615 2.574335
L5.831901 2.860049
" />
<path d="M5.831901 2.860049
L6.141425 2.860049
" />
<path d="M6.308091 2.360049
L6.641424 2.360049
" />
<path d="M6.641424 2.360049
L6.427139 2.860049
" />
<path d="M6.784281 2.360049
L7.117614 2.860049
" />
<path d="M7.117614 2.360049
L6.784281 2.860049
" />
<path d="M7.236662 2.360049
L7.522376 2.360049
" />
<path d="M7.379519 2.860049
L7.379519 2.360049
" />
<path d="M7.665233 2.836240
L7.736661 2.860049
" />
<path d="M7.736661 2.860049
L7.855709 2.860049
" />
<path d="M7.855709 2.860049
L7.903328 2.836240
" />
<path d="M7.903328 2.836240
L7.927137 2.812430
" />
<path d="M7.927137 2.812430
L7.950947 2.764811
" />
<path d="M7.950947 2.764811
L7.950947 2.717192
" />
<path d="M7.950947 2.717192
L7.927137 2.669573
" />
<path d="M7.927137 2.669573
L7.903328 2.645763
" />
<path d="M7.903328 2.645763
L7.855709 2.621954
" />
<path d="M7.855709 2.621954
L7.760471 2.598144
" />
<path d="M7.760471 2.598144
L7.712852 2.574335
" />
<path d="M7.712852 2.574335
L7.689042 2.550525
" />
<path d="M7.689042 2.550525
L7.665233 2.502906
" />
<path d="M7.665233 2.502906
L7.665233 2.455287
" />
<path d="M7.665233 2.455287
L7.689042 2.407668
" />
<path d="M7.689042 2.407668
L7.712852 2.383859
" />
<path d="M7.712852 2.383859
L7.760471 2.360049
" />
<path d="M7.760471 2.360049
L7.879518 2.360049
" />
<path d="M7.879518 2.360049
L7.950947 2.383859
" />
<path d="M8.141423 2.717192
L8.379518 2.717192
" />
<path d="M8.093804 2.860049
L8.260470 2.360049
" />
<path d="M8.260470 2.360049
L8.427137 2.860049
" />
<path d="M8.855708 2.860049
L8.569994 2.860049
" />
<path d="M8.712851 2.860049
L8.712851 2.360049
" />
<path d="M8.712851 2.360049
L8.665232 2.431478
" />
<path d="M8.665232 2.431478
L8.617613 2.479097
" />
<path d="M8.617613 2.479097
L8.569994 2.502906
" />
</g><text x="4.510473" y="0.682900"
textLength="2.282856" font-size="0.666666" lengthAdjust="spacingAndGlyphs"
text-anchor="middle" opacity="0" stroke-opacity="0">REF**</text>
<g class="stroked-text"><desc>REF**</desc>
<path d="M3.843807 0.660050
L3.677141 0.421955
" />
<path d="M3.558093 0.660050
L3.558093 0.160050
" />
<path d="M3.558093 0.160050
L3.748569 0.160050
" />
<path d="M3.748569 0.160050
L3.796188 0.183860
" />
<path d="M3.796188 0.183860
L3.819998 0.207669
" />
<path d="M3.819998 0.207669
L3.843807 0.255288
" />
<path d="M3.843807 0.255288
L3.843807 0.326717
" />
<path d="M3.843807 0.326717
L3.819998 0.374336
" />
<path d="M3.819998 0.374336
L3.796188 0.398145
" />
<path d="M3.796188 0.398145
L3.748569 0.421955
" />
<path d="M3.748569 0.421955
L3.558093 0.421955
" />
<path d="M4.058093 0.398145
L4.224760 0.398145
" />
<path d="M4.296188 0.660050
L4.058093 0.660050
" />
<path d="M4.058093 0.660050
L4.058093 0.160050
" />
<path d="M4.058093 0.160050
L4.296188 0.160050
" />
<path d="M4.677140 0.398145
L4.510473 0.398145
" />
<path d="M4.510473 0.660050
L4.510473 0.160050
" />
<path d="M4.510473 0.160050
L4.748568 0.160050
" />
<path d="M5.010473 0.160050
L5.010473 0.279098
" />
<path d="M4.891425 0.231479
L5.010473 0.279098
" />
<path d="M5.010473 0.279098
L5.129520 0.231479
" />
<path d="M4.939044 0.374336
L5.010473 0.279098
" />
<path d="M5.010473 0.279098
L5.081901 0.374336
" />
<path d="M5.391425 0.160050
L5.391425 0.279098
" />
<path d="M5.272377 0.231479
L5.391425 0.279098
" />
<path d="M5.391425 0.279098
L5.510472 0.231479
" />
<path d="M5.319996 0.374336
L5.391425 0.279098
" />
<path d="M5.391425 0.279098
L5.462853 0.374336
" />
</g><path style="fill:none; 
stroke:#AFAFAF; stroke-width:0.080000; stroke-opacity:1; 
stroke-linecap:round; stroke-linejoin:round;fill:none"
d="M 4.160473,0.982900
4.860473,0.982900
4.860473,2.082900
4.160473,2.082900
Z" /> 
<path d="M4.860473 1.832900
L4.610473 2.082900
" />
<path style="fill:#D864FF; fill-opacity:0.400000; stroke:none;fill-rule:evenodd;"
d="M 4.585473,2.057900
4.585473,1.807900
4.835473,1.807900
4.835473,2.057900
Z" /> 
<path style="fill:#D864FF; fill-opacity:0.400000; stroke:none;fill-rule:evenodd;"
d="M 4.585473,1.657900
4.585473,1.407900
4.835473,1.407900
4.835473,1.657900
Z" /> 
<path style="fill:#D864FF; fill-opacity:0.400000; stroke:none;fill-rule:evenodd;"
d="M 4.585473,1.257900
4.585473,1.007900
4.835473,1.007900
4.835473,1.257900
Z" /> 
<path style="fill:#D864FF; fill-opacity:0.400000; stroke:none;fill-rule:evenodd;"
d="M 4.185473,1.257900
4.185473,1.007900
4.435473,1.007900
4.435473,1.257900
Z" /> 
<path style="fill:#D864FF; fill-opacity:0.400000; stroke:none;fill-rule:evenodd;"
d="M 4.185473,1.657900
4.185473,1.407900
4.435473,1.407900
4.435473,1.657900
Z" /> 
<path style="fill:#D864FF; fill-opacity:0.400000; stroke:none;fill-rule:evenodd;"
d="M 4.185473,2.057900
4.185473,1.807900
4.435473,1.807900
4.435473,2.057900
Z" /> 
<path style="fill:none; 
stroke:#FF26E2; stroke-width:0.050000; stroke-opacity:1; 
stroke-linecap:round; stroke-linejoin:round;fill:none"
d="M 3.910473,0.732900
5.110473,0.732900
5.110473,2.332900
3.910473,2.332900
Z" /> 
</g> 
</svg>
